{
  "ffprobe": {
    "audio_streams": [
      {
        "avg_frame_rate": "0/0",
        "bit_rate": "1152000",
        "bits_per_raw_sample": "24",
        "bits_per_sample": 24,
        "channels": 1,
        "codec_long_name": "PCM signed 24-bit little-endian",
        "codec_name": "pcm_s24le",
        "codec_tag": "0x0000",
        "codec_tag_string": "[0][0][0][0]",
        "codec_time_base": "1/48000",
        "codec_type": "audio",
        "disposition": {
          "attached_pic": 0,
          "clean_effects": 0,
          "comment": 0,
          "default": 0,
          "dub": 0,
          "forced": 0,
          "hearing_impaired": 0,
          "karaoke": 0,
          "lyrics": 0,
          "original": 0,
          "timed_thumbnails": 0,
          "visual_impaired": 0
        },
        "duration": "7890.115563",
        "duration_ts": 378725547,
        "index": 1,
        "r_frame_rate": "0/0",
        "sample_fmt": "s32",
        "sample_rate": "48000",
        "start_pts": 0,
        "start_time": "0.000000",
        "tags": {
          "file_package_umid": "0x060A2B340101010501010F2013000000D0E884CF9DFAE91196CFD35F2E734D37"
        },
        "time_base": "1/48000"
      },
      {
        "avg_frame_rate": "0/0",
        "bit_rate": "1152000",
        "bits_per_raw_sample": "24",
        "bits_per_sample": 24,
        "channels": 1,
        "codec_long_name": "PCM signed 24-bit little-endian",
        "codec_name": "pcm_s24le",
        "codec_tag": "0x0000",
        "codec_tag_string": "[0][0][0][0]",
        "codec_time_base": "1/48000",
        "codec_type": "audio",
        "disposition": {
          "attached_pic": 0,
          "clean_effects": 0,
          "comment": 0,
          "default": 0,
          "dub": 0,
          "forced": 0,
          "hearing_impaired": 0,
          "karaoke": 0,
          "lyrics": 0,
          "original": 0,
          "timed_thumbnails": 0,
          "visual_impaired": 0
        },
        "duration": "7890.115563",
        "duration_ts": 378725547,
        "index": 2,
        "r_frame_rate": "0/0",
        "sample_fmt": "s32",
        "sample_rate": "48000",
        "start_pts": 0,
        "start_time": "0.000000",
        "tags": {
          "file_package_umid": "0x060A2B340101010501010F2013000000D0E884CF9DFAE91196CFD35F2E734D37"
        },
        "time_base": "1/48000"
      },
      {
        "avg_frame_rate": "0/0",
        "bit_rate": "1152000",
        "bits_per_raw_sample": "24",
        "bits_per_sample": 24,
        "channels": 1,
        "codec_long_name": "PCM signed 24-bit little-endian",
        "codec_name": "pcm_s24le",
        "codec_tag": "0x0000",
        "codec_tag_string": "[0][0][0][0]",
        "codec_time_base": "1/48000",
        "codec_type": "audio",
        "disposition": {
          "attached_pic": 0,
          "clean_effects": 0,
          "comment": 0,
          "default": 0,
          "dub": 0,
          "forced": 0,
          "hearing_impaired": 0,
          "karaoke": 0,
          "lyrics": 0,
          "original": 0,
          "timed_thumbnails": 0,
          "visual_impaired": 0
        },
        "duration": "7890.115563",
        "duration_ts": 378725547,
        "index": 3,
        "r_frame_rate": "0/0",
        "sample_fmt": "s32",
        "sample_rate": "48000",
        "start_pts": 0,
        "start_time": "0.000000",
        "tags": {
          "file_package_umid": "0x060A2B340101010501010F2013000000D0E884CF9DFAE91196CFD35F2E734D37"
        },
        "time_base": "1/48000"
      },
      {
        "avg_frame_rate": "0/0",
        "bit_rate": "1152000",
        "bits_per_raw_sample": "24",
        "bits_per_sample": 24,
        "channels": 1,
        "codec_long_name": "PCM signed 24-bit little-endian",
        "codec_name": "pcm_s24le",
        "codec_tag": "0x0000",
        "codec_tag_string": "[0][0][0][0]",
        "codec_time_base": "1/48000",
        "codec_type": "audio",
        "disposition": {
          "attached_pic": 0,
          "clean_effects": 0,
          "comment": 0,
          "default": 0,
          "dub": 0,
          "forced": 0,
          "hearing_impaired": 0,
          "karaoke": 0,
          "lyrics": 0,
          "original": 0,
          "timed_thumbnails": 0,
          "visual_impaired": 0
        },
        "duration": "7890.115563",
        "duration_ts": 378725547,
        "index": 4,
        "r_frame_rate": "0/0",
        "sample_fmt": "s32",
        "sample_rate": "48000",
        "start_pts": 0,
        "start_time": "0.000000",
        "tags": {
          "file_package_umid": "0x060A2B340101010501010F2013000000D0E884CF9DFAE91196CFD35F2E734D37"
        },
        "time_base": "1/48000"
      },
      {
        "avg_frame_rate": "0/0",
        "bit_rate": "1152000",
        "bits_per_raw_sample": "24",
        "bits_per_sample": 24,
        "channels": 1,
        "codec_long_name": "PCM signed 24-bit little-endian",
        "codec_name": "pcm_s24le",
        "codec_tag": "0x0000",
        "codec_tag_string": "[0][0][0][0]",
        "codec_time_base": "1/48000",
        "codec_type": "audio",
        "disposition": {
          "attached_pic": 0,
          "clean_effects": 0,
          "comment": 0,
          "default": 0,
          "dub": 0,
          "forced": 0,
          "hearing_impaired": 0,
          "karaoke": 0,
          "lyrics": 0,
          "original": 0,
          "timed_thumbnails": 0,
          "visual_impaired": 0
        },
        "duration": "7890.115563",
        "duration_ts": 378725547,
        "index": 5,
        "r_frame_rate": "0/0",
        "sample_fmt": "s32",
        "sample_rate": "48000",
        "start_pts": 0,
        "start_time": "0.000000",
        "tags": {
          "file_package_umid": "0x060A2B340101010501010F2013000000D0E884CF9DFAE91196CFD35F2E734D37"
        },
        "time_base": "1/48000"
      },
      {
        "avg_frame_rate": "0/0",
        "bit_rate": "1152000",
        "bits_per_raw_sample": "24",
        "bits_per_sample": 24,
        "channels": 1,
        "codec_long_name": "PCM signed 24-bit little-endian",
        "codec_name": "pcm_s24le",
        "codec_tag": "0x0000",
        "codec_tag_string": "[0][0][0][0]",
        "codec_time_base": "1/48000",
        "codec_type": "audio",
        "disposition": {
          "attached_pic": 0,
          "clean_effects": 0,
          "comment": 0,
          "default": 0,
          "dub": 0,
          "forced": 0,
          "hearing_impaired": 0,
          "karaoke": 0,
          "lyrics": 0,
          "original": 0,
          "timed_thumbnails": 0,
          "visual_impaired": 0
        },
        "duration": "7890.115563",
        "duration_ts": 378725547,
        "index": 6,
        "r_frame_rate": "0/0",
        "sample_fmt": "s32",
        "sample_rate": "48000",
        "start_pts": 0,
        "start_time": "0.000000",
        "tags": {
          "file_package_umid": "0x060A2B340101010501010F2013000000D0E884CF9DFAE91196CFD35F2E734D37"
        },
        "time_base": "1/48000"
      },
      {
        "avg_frame_rate": "0/0",
        "bit_rate": "1152000",
        "bits_per_raw_sample": "24",
        "bits_per_sample": 24,
        "channels": 1,
        "codec_long_name": "PCM signed 24-bit little-endian",
        "codec_name": "pcm_s24le",
        "codec_tag": "0x0000",
        "codec_tag_string": "[0][0][0][0]",
        "codec_time_base": "1/48000",
        "codec_type": "audio",
        "disposition": {
          "attached_pic": 0,
          "clean_effects": 0,
          "comment": 0,
          "default": 0,
          "dub": 0,
          "forced": 0,
          "hearing_impaired": 0,
          "karaoke": 0,
          "lyrics": 0,
          "original": 0,
          "timed_thumbnails": 0,
          "visual_impaired": 0
        },
        "duration": "7890.115563",
        "duration_ts": 378725547,
        "index": 7,
        "r_frame_rate": "0/0",
        "sample_fmt": "s32",
        "sample_rate": "48000",
        "start_pts": 0,
        "start_time": "0.000000",
        "tags": {
          "file_package_umid": "0x060A2B340101010501010F2013000000D0E884CF9DFAE91196CFD35F2E734D37"
        },
        "time_base": "1/48000"
      },
      {
        "avg_frame_rate": "0/0",
        "bit_rate": "1152000",
        "bits_per_raw_sample": "24",
        "bits_per_sample": 24,
        "channels": 1,
        "codec_long_name": "PCM signed 24-bit little-endian",
        "codec_name": "pcm_s24le",
        "codec_tag": "0x0000",
        "codec_tag_string": "[0][0][0][0]",
        "codec_time_base": "1/48000",
        "codec_type": "audio",
        "disposition": {
          "attached_pic": 0,
          "clean_effects": 0,
          "comment": 0,
          "default": 0,
          "dub": 0,
          "forced": 0,
          "hearing_impaired": 0,
          "karaoke": 0,
          "lyrics": 0,
          "original": 0,
          "timed_thumbnails": 0,
          "visual_impaired": 0
        },
        "duration": "7890.115563",
        "duration_ts": 378725547,
        "index": 8,
        "r_frame_rate": "0/0",
        "sample_fmt": "s32",
        "sample_rate": "48000",
        "start_pts": 0,
        "start_time": "0.000000",
        "tags": {
          "file_package_umid": "0x060A2B340101010501010F2013000000D0E884CF9DFAE91196CFD35F2E734D37"
        },
        "time_base": "1/48000"
      }
    ],
    "data_streams": [
      {
        "avg_frame_rate": "0/0",
        "codec_tag": "0x0000",
        "codec_tag_string": "[0][0][0][0]",
        "codec_type": "data",
        "disposition": {
          "attached_pic": 0,
          "clean_effects": 0,
          "comment": 0,
          "default": 0,
          "dub": 0,
          "forced": 0,
          "hearing_impaired": 0,
          "karaoke": 0,
          "lyrics": 0,
          "original": 0,
          "timed_thumbnails": 0,
          "visual_impaired": 0
        },
        "duration": "7890.115567",
        "duration_ts": 472934,
        "index": 9,
        "r_frame_rate": "0/0",
        "start_pts": 0,
        "start_time": "0.000000",
        "tags": {
          "data_type": "vbi_vanc_smpte_436M",
          "file_package_umid": "0x060A2B340101010501010F2013000000D0E884CF9DFAE91196CFD35F2E734D37"
        },
        "time_base": "1001/60000"
      }
    ],
    "format": {
      "bit_rate": "45007283",
      "duration": "7890.115567",
      "filename": "/mnt/archive2/ESPNLATINA/202006/9678604004/9678604004_original.mxf",
      "filename_extension": "mxf",
      "format_long_name": "MXF (Material eXchange Format)",
      "format_name": "mxf",
      "nb_programs": 0,
      "probe_score": 100,
      "size": "44389083948",
      "start_time": "0.000000",
      "streams_attachment_count": 0,
      "streams_audio_count": 8,
      "streams_count": 10,
      "streams_data_count": 1,
      "streams_image_count": 0,
      "streams_subtitle_count": 0,
      "streams_video_count": 1
    },
    "video_streams": [
      {
        "avg_frame_rate": "60000/1001",
        "bits_per_raw_sample": "10",
        "chroma_location": "left",
        "codec_long_name": "H.264 / AVC / MPEG-4 AVC / MPEG-4 part 10",
        "codec_name": "h264",
        "codec_tag": "0x0000",
        "codec_tag_string": "[0][0][0][0]",
        "codec_time_base": "1001/120000",
        "codec_type": "video",
        "coded_height": 720,
        "coded_width": 1280,
        "display_aspect_ratio": "16:9",
        "disposition": {
          "attached_pic": 0,
          "clean_effects": 0,
          "comment": 0,
          "default": 0,
          "dub": 0,
          "forced": 0,
          "hearing_impaired": 0,
          "karaoke": 0,
          "lyrics": 0,
          "original": 0,
          "timed_thumbnails": 0,
          "visual_impaired": 0
        },
        "duration": "7890.115567",
        "duration_ts": 472934,
        "field_order": "progressive",
        "has_b_frames": 0,
        "height": 720,
        "index": 0,
        "is_avc": "false",
        "level": 41,
        "nal_length_size": "0",
        "pix_fmt": "yuv422p10le",
        "profile": "High 4:2:2",
        "r_frame_rate": "60000/1001",
        "refs": 1,
        "sample_aspect_ratio": "1:1",
        "start_pts": 0,
        "start_time": "0.000000",
        "tags": {
          "file_package_umid": "0x060A2B340101010501010F2013000000D0E884CF9DFAE91196CFD35F2E734D37"
        },
        "time_base": "1001/60000",
        "width": 1280
      }
    ]
  },
  "mediainfo": {
    "audio_streams": [
      {
        "BitDepth": 24,
        "BitRate": 1152000,
        "BitRate_Mode": "CBR",
        "Channels": 1,
        "CodecID": "0D01030102060300",
        "Delay": "53538.100",
        "Delay_DropFrame": "Yes",
        "Delay_Source": "Container",
        "Duration": "7890.116",
        "Format": "PCM",
        "Format_Settings_Endianness": "Little",
        "Format_Settings_Wrapping": "Frame (AES)",
        "FrameCount": 472934,
        "FrameRate": "59.940",
        "ID": 3,
        "SamplesPerFrame": "800.8",
        "SamplingCount": 378725568,
        "SamplingRate": 48000,
        "StreamOrder": 1,
        "StreamSize": 1136176704,
        "StreamSize_Proportion": "0.02560",
        "extra": {
          "BlockAlignment": 3,
          "Delay_SDTI": 67938150,
          "Locked": "Yes"
        }
      },
      {
        "BitDepth": 24,
        "BitRate": 1152000,
        "BitRate_Mode": "CBR",
        "Channels": 1,
        "CodecID": "0D01030102060300",
        "Delay": "53538.100",
        "Delay_DropFrame": "Yes",
        "Delay_Source": "Container",
        "Duration": "7890.116",
        "Format": "PCM",
        "Format_Settings_Endianness": "Little",
        "Format_Settings_Wrapping": "Frame (AES)",
        "FrameCount": 472934,
        "FrameRate": "59.940",
        "ID": 4,
        "SamplesPerFrame": "800.8",
        "SamplingCount": 378725568,
        "SamplingRate": 48000,
        "StreamOrder": 2,
        "StreamSize": 1136176704,
        "StreamSize_Proportion": "0.02560",
        "extra": {
          "BlockAlignment": 3,
          "Delay_SDTI": 67938150,
          "Locked": "Yes"
        }
      },
      {
        "BitDepth": 24,
        "BitRate": 1152000,
        "BitRate_Mode": "CBR",
        "Channels": 1,
        "CodecID": "0D01030102060300",
        "Delay": "53538.100",
        "Delay_DropFrame": "Yes",
        "Delay_Source": "Container",
        "Duration": "7890.116",
        "Format": "PCM",
        "Format_Settings_Endianness": "Little",
        "Format_Settings_Wrapping": "Frame (AES)",
        "FrameCount": 472934,
        "FrameRate": "59.940",
        "ID": 5,
        "SamplesPerFrame": "800.8",
        "SamplingCount": 378725568,
        "SamplingRate": 48000,
        "StreamOrder": 3,
        "StreamSize": 1136176704,
        "StreamSize_Proportion": "0.02560",
        "extra": {
          "BlockAlignment": 3,
          "Delay_SDTI": 67938150,
          "Locked": "Yes"
        }
      },
      {
        "BitDepth": 24,
        "BitRate": 1152000,
        "BitRate_Mode": "CBR",
        "Channels": 1,
        "CodecID": "0D01030102060300",
        "Delay": "53538.100",
        "Delay_DropFrame": "Yes",
        "Delay_Source": "Container",
        "Duration": "7890.116",
        "Format": "PCM",
        "Format_Settings_Endianness": "Little",
        "Format_Settings_Wrapping": "Frame (AES)",
        "FrameCount": 472934,
        "FrameRate": "59.940",
        "ID": 6,
        "SamplesPerFrame": "800.8",
        "SamplingCount": 378725568,
        "SamplingRate": 48000,
        "StreamOrder": 4,
        "StreamSize": 1136176704,
        "StreamSize_Proportion": "0.02560",
        "extra": {
          "BlockAlignment": 3,
          "Delay_SDTI": 67938150,
          "Locked": "Yes"
        }
      },
      {
        "BitDepth": 24,
        "BitRate": 1152000,
        "BitRate_Mode": "CBR",
        "Channels": 1,
        "CodecID": "0D01030102060300",
        "Delay": "53538.100",
        "Delay_DropFrame": "Yes",
        "Delay_Source": "Container",
        "Duration": "7890.116",
        "Format": "PCM",
        "Format_Settings_Endianness": "Little",
        "Format_Settings_Wrapping": "Frame (AES)",
        "FrameCount": 472934,
        "FrameRate": "59.940",
        "ID": 7,
        "SamplesPerFrame": "800.8",
        "SamplingCount": 378725568,
        "SamplingRate": 48000,
        "StreamOrder": 5,
        "StreamSize": 1136176704,
        "StreamSize_Proportion": "0.02560",
        "extra": {
          "BlockAlignment": 3,
          "Delay_SDTI": 67938150,
          "Locked": "Yes"
        }
      },
      {
        "BitDepth": 24,
        "BitRate": 1152000,
        "BitRate_Mode": "CBR",
        "Channels": 1,
        "CodecID": "0D01030102060300",
        "Delay": "53538.100",
        "Delay_DropFrame": "Yes",
        "Delay_Source": "Container",
        "Duration": "7890.116",
        "Format": "PCM",
        "Format_Settings_Endianness": "Little",
        "Format_Settings_Wrapping": "Frame (AES)",
        "FrameCount": 472934,
        "FrameRate": "59.940",
        "ID": 8,
        "SamplesPerFrame": "800.8",
        "SamplingCount": 378725568,
        "SamplingRate": 48000,
        "StreamOrder": 6,
        "StreamSize": 1136176704,
        "StreamSize_Proportion": "0.02560",
        "extra": {
          "BlockAlignment": 3,
          "Delay_SDTI": 67938150,
          "Locked": "Yes"
        }
      },
      {
        "BitDepth": 24,
        "BitRate": 1152000,
        "BitRate_Mode": "CBR",
        "Channels": 1,
        "CodecID": "0D01030102060300",
        "Delay": "53538.100",
        "Delay_DropFrame": "Yes",
        "Delay_Source": "Container",
        "Duration": "7890.116",
        "Format": "PCM",
        "Format_Settings_Endianness": "Little",
        "Format_Settings_Wrapping": "Frame (AES)",
        "FrameCount": 472934,
        "FrameRate": "59.940",
        "ID": 9,
        "SamplesPerFrame": "800.8",
        "SamplingCount": 378725568,
        "SamplingRate": 48000,
        "StreamOrder": 7,
        "StreamSize": 1136176704,
        "StreamSize_Proportion": "0.02560",
        "extra": {
          "BlockAlignment": 3,
          "Delay_SDTI": 67938150,
          "Locked": "Yes"
        }
      },
      {
        "BitDepth": 24,
        "BitRate": 1152000,
        "BitRate_Mode": "CBR",
        "Channels": 1,
        "CodecID": "0D01030102060300",
        "Delay": "53538.100",
        "Delay_DropFrame": "Yes",
        "Delay_Source": "Container",
        "Duration": "7890.116",
        "Format": "PCM",
        "Format_Settings_Endianness": "Little",
        "Format_Settings_Wrapping": "Frame (AES)",
        "FrameCount": 472934,
        "FrameRate": "59.940",
        "ID": 10,
        "SamplesPerFrame": "800.8",
        "SamplingCount": 378725568,
        "SamplingRate": 48000,
        "StreamOrder": 8,
        "StreamSize": 1136176704,
        "StreamSize_Proportion": "0.02560",
        "extra": {
          "BlockAlignment": 3,
          "Delay_SDTI": 67938150,
          "Locked": "Yes"
        }
      }
    ],
    "format": {
      "AudioCount": 8,
      "Duration": "7890.116",
      "Encoded_Application_CompanyName": "Drastic",
      "Encoded_Application_Name": "MediaReactor",
      "Encoded_Application_Version": "5.1.0.0",
      "Encoded_Date": "2020-06-17 19:20:59.212",
      "Encoded_Library_Name": "Drastic.tv (Linux)",
      "FileExtension": "mxf",
      "FileSize": 44389083948,
      "File_Modified_Date": "UTC 2020-06-17 19:47:05",
      "File_Modified_Date_Local": "2020-06-17 19:47:05",
      "FooterSize": 7274796,
      "Format": "MXF",
      "Format_Profile": "OP-1a",
      "Format_Settings": "Closed / Complete",
      "Format_Version": "1.3",
      "FrameCount": 472934,
      "FrameRate": "59.940",
      "OtherCount": 3,
      "OverallBitRate": 45007280,
      "OverallBitRate_Mode": "VBR",
      "VideoCount": 1,
      "filename": "/mnt/archive2/ESPNLATINA/202006/9678604004/9678604004_original.mxf",
      "streams_attachment_count": 0,
      "streams_audio_count": 8,
      "streams_count": 9,
      "streams_data_count": 0,
      "streams_image_count": 0,
      "streams_other_count": 0,
      "streams_subtitle_count": 0,
      "streams_video_count": 1
    },
    "other_streams": [
      {
        "Format": "MXF TC",
        "ID": "1-Material",
        "TimeCode_FirstFrame": "18:52:18;09",
        "TimeCode_Settings": "Material Package",
        "TimeCode_Striped": "Yes",
        "Type": "Time code"
      },
      {
        "Format": "MXF TC",
        "ID": "1-Source",
        "TimeCode_FirstFrame": "14:52:18;09",
        "TimeCode_Settings": "Source Package",
        "TimeCode_Striped": "Yes",
        "Type": "Time code"
      },
      {
        "Format": "SMPTE TC",
        "MuxingMode": "SDTI",
        "TimeCode_FirstFrame": "18:52:18;09",
        "Type": "Time code"
      }
    ],
    "video_streams": [
      {
        "BitDepth": 10,
        "BitRate": 49999872,
        "BitRate_Mode": "VBR",
        "BufferSize": 10855424,
        "ChromaSubsampling": "4:2:2",
        "CodecID": "0D01030102106001-0401020201316001",
        "ColorSpace": "YUV",
        "Delay": "53538.100",
        "DisplayAspectRatio": "1.778",
        "Duration": "7890.116",
        "Format": "AVC",
        "Format_Level": "4.1",
        "Format_Profile": "High 4:2:2",
        "Format_Settings_CABAC": "No",
        "Format_Settings_GOP": "M=1, N=15",
        "Format_Settings_RefFrames": 2,
        "Format_Settings_Wrapping": "Frame",
        "FrameCount": 472934,
        "FrameRate": "59.940",
        "Height": 720,
        "ID": 2,
        "PixelAspectRatio": "1.000",
        "Sampled_Height": 720,
        "Sampled_Width": 1280,
        "ScanType": "Progressive",
        "StreamOrder": 0,
        "StreamSize": 49313098758,
        "Width": 1280,
        "colour_range": "Limited",
        "colour_range_Source": "Container",
        "extra": {
          "BitRate_Maximum_Original": 40207360,
          "Delay_SDTI": 67938150
        },
        "transfer_characteristics": "BT.709",
        "transfer_characteristics_Source": "Container"
      }
    ]
  }
}
